<svg xmlns="http://www.w3.org/2000/svg" width="51" height="50" fill="none">
  <path stroke="#fff" stroke-width="2" d="M31.35 45.196a8.757 8.757 0 0 1 8.76-8.757c1.974 0 3.792.652 5.26 1.752a23.893 23.893 0 0 0 4.085-12.531h-.012a8.758 8.758 0 0 1-8.761-8.758 8.746 8.746 0 0 1 3.6-7.074 24.101 24.101 0 0 0-10.527-7.641 8.759 8.759 0 0 1-2.288 3.615 8.653 8.653 0 0 1-2.507 1.67l-.232.098a8.712 8.712 0 0 1-3.299.644 8.713 8.713 0 0 1-3.53-.742 8.877 8.877 0 0 1-2.043-1.255 11.232 11.232 0 0 1-.465-.415 8.835 8.835 0 0 1-1.085-1.247 8.759 8.759 0 0 1-1.202-2.368A24.094 24.094 0 0 0 6.59 9.812a8.744 8.744 0 0 1 3.62 7.09 8.758 8.758 0 0 1-8.76 8.758H1.4a23.937 23.937 0 0 0 3.996 12.392 8.721 8.721 0 0 1 5.064-1.613c4.839 0 8.761 3.92 8.761 8.757a8.82 8.82 0 0 1-.412 2.661c2.104.6 4.322.93 6.617.93a23.56 23.56 0 0 0 6.36-.856 8.789 8.789 0 0 1-.436-2.735Z"/>
</svg>
