<svg xmlns="http://www.w3.org/2000/svg" width="47" height="52" fill="none">
  <path stroke="#fff" stroke-width="2" d="M42.369 32.583a9.405 9.405 0 0 1 0-12.193l1.875-2.198c2.102-2.467-.053-6.219-3.231-5.623l-2.833.53c-4.522.848-8.982-1.741-10.512-6.097L26.71 4.27c-1.076-3.062-5.387-3.062-6.462 0l-.958 2.732c-1.53 4.36-5.99 6.945-10.512 6.097l-2.833-.53c-3.178-.596-5.334 3.156-3.231 5.623l1.875 2.198a9.405 9.405 0 0 1 0 12.193l-1.875 2.198C.61 37.248 2.767 41 5.944 40.405l2.834-.53c4.521-.849 8.982 1.74 10.512 6.096l.958 2.732c1.075 3.063 5.386 3.063 6.462 0l.957-2.732c1.53-4.36 5.991-6.945 10.513-6.096l2.833.53c3.178.595 5.333-3.157 3.23-5.624l-1.874-2.198Z"/>
</svg>
